<svg width="100" height="100" viewBox="0 0 100 100" fill="none" xmlns="http://www.w3.org/2000/svg">
<rect width="100" height="100" fill="#292929"/>
<path d="M52.283 61.5234L52.2833 61.5257L55.7443 86.8957L55.744 86.8958L55.7463 86.9084C56.2172 89.3999 54.5308 91.8645 51.9715 92.3493L51.97 92.3496C51.8149 92.3799 51.6669 92.3849 51.523 92.3849C51.4859 92.3849 51.4484 92.3828 51.4069 92.3797C51.3992 92.3792 51.391 92.3786 51.3826 92.3779C51.3518 92.3756 51.3171 92.373 51.2837 92.3715L51.1158 92.3534L51.1025 92.3519H51.089C48.8842 92.3519 46.8818 90.6318 46.4509 88.3713L43.3719 64.9663L43.3433 64.7489H43.124H24.788C20.7747 64.7489 17.7834 62.5377 16.7523 58.7335L16.7522 58.7334C16.4128 57.4844 16.4265 56.2056 16.7938 54.9238C16.7939 54.9232 16.7941 54.9225 16.7943 54.9219L25.0952 27.6588L25.0952 27.6588L25.0964 27.6546C25.7717 25.292 27.7023 23.5697 30.1345 23.1401C32.422 22.7359 34.6612 23.5789 36.1339 25.3242L36.142 25.3337L36.151 25.3424L44.234 33.1794L44.3067 33.2499H44.408H57.98C60.3096 33.2499 62.2961 34.6552 62.8399 36.7683C63.2141 38.2232 62.9045 39.6485 61.9837 40.8477L61.6748 41.2499H62.182H79.021H79.1575L79.2313 41.1351L90.4413 23.6891L90.231 23.5539L90.4414 23.689C90.6651 23.3407 91.1283 23.2385 91.4774 23.4639L91.4779 23.4643C91.8256 23.6876 91.9271 24.1518 91.7027 24.5007L91.7027 24.5008L79.9765 42.7499H43.009C41.5517 42.7499 40.0169 42.0647 38.6947 40.797L35.6763 37.7267L35.3822 37.4276L35.259 37.8285L30.005 54.9265L29.9056 55.2499H30.244H45.263C48.3365 55.2499 51.2523 57.5413 52.1731 60.7525L52.1987 60.859L52.283 61.5234ZM51.3312 90.8877L51.335 90.8878C51.3483 90.8882 51.362 90.8887 51.3759 90.8892C51.4231 90.8908 51.4724 90.8925 51.5161 90.8928C51.5682 90.8932 51.6345 90.8921 51.6936 90.8806C53.4322 90.5508 54.5879 88.891 54.2649 87.1571L50.7187 61.1352L50.7161 61.1158L50.7105 61.0971C49.965 58.6105 47.6515 56.7499 45.263 56.7499H29.96C29.4806 56.7499 29.013 56.4988 28.7213 56.1027C28.4338 55.7122 28.3449 55.1766 28.488 54.7114L34.0579 36.6095L34.058 36.6093C34.1909 36.1762 34.5332 35.855 34.9745 35.7467C35.4148 35.6398 35.8694 35.769 36.1886 36.0941L36.1887 36.0942L39.7467 39.7152L39.7466 39.7152L39.7522 39.7206C40.3089 40.253 41.5311 41.2499 43.009 41.2499H58.27C59.2409 41.2499 60.1595 40.8193 60.7827 40.014C61.4258 39.1844 61.6478 38.1562 61.3861 37.1416C61.0087 35.6759 59.5592 34.7499 57.98 34.7499H43.7063L35.0067 26.3128C34.0843 25.2058 32.742 24.4859 31.292 24.4859C30.997 24.4859 30.6975 24.509 30.3951 24.5617L30.3944 24.5618C28.5351 24.8913 27.055 26.2222 26.5342 28.0442C26.534 28.0449 26.5338 28.0456 26.5336 28.0463L18.2358 55.2991L18.2358 55.2991L18.2346 55.3032C17.9446 56.3171 17.9303 57.3506 18.1987 58.3385C18.7803 60.4837 19.9388 61.7215 21.2094 62.4162C22.471 63.1059 23.8233 63.2499 24.788 63.2499H43.457C44.1291 63.2499 44.723 63.8043 44.8141 64.4947L47.9291 88.1825L47.9301 88.1897L47.9314 88.1968C48.2175 89.6971 49.5695 90.8809 51.088 90.8809C51.1674 90.8809 51.2479 90.8838 51.3312 90.8877ZM45.432 13.3809C45.432 18.2819 41.4439 22.2699 36.543 22.2699C31.6421 22.2699 27.654 18.2819 27.654 13.3809C27.654 8.48001 31.6421 4.49194 36.543 4.49194C41.4439 4.49194 45.432 8.48001 45.432 13.3809ZM43.932 13.3809C43.932 9.30587 40.6181 5.99194 36.543 5.99194C32.4679 5.99194 29.154 9.30587 29.154 13.3809C29.154 17.456 32.4679 20.7699 36.543 20.7699C40.6181 20.7699 43.932 17.456 43.932 13.3809Z" fill="white" stroke="#212121" stroke-width="0.5"/>
<path d="M66.25 50V49.75H66H39.25V45.25H96.75V49.75H94H93.75V50V92.75H66.25V50ZM92 91.25H92.25V91V50V49.75H92H68H67.75V50V91V91.25H68H92ZM95 48.25H95.25V48V47V46.75H95H41H40.75V47V48V48.25H41H66.479H94.117H95Z" fill="white" stroke="#212121" stroke-width="0.5"/>
<path d="M13.4767 67.5883L13.6136 67.7159L13.75 67.5877C14.1052 67.2538 14.5887 67.2 15.208 67.2H40C40.6121 67.2 41.0549 67.3549 41.3442 67.6315C41.6319 67.9064 41.7989 68.3315 41.798 68.9387V68.939V70.933C41.798 71.5407 41.6301 72.0024 41.3358 72.3111C41.043 72.6185 40.6005 72.8 39.998 72.8H27.998H27.798V73V85.334V85.5124L27.9752 85.5327C32.2233 86.0201 35.8901 88.8847 37.3283 92.9783L37.3285 92.9787C37.4753 93.3938 37.2559 93.8508 36.8387 93.9973L36.8376 93.9977C36.7513 94.0286 36.6622 94.043 36.574 94.043C36.2435 94.043 35.9357 93.8373 35.8197 93.5076C34.6124 90.0688 31.5723 87.6421 28.0266 87.1479L27.799 87.1162V87.346V93C27.799 93.4425 27.4415 93.8 26.999 93.8C26.5565 93.8 26.199 93.4425 26.199 93V87.277V87.0618L25.9844 87.0775C22.1739 87.3563 18.844 89.8679 17.5653 93.5076C17.4187 93.9244 16.9616 94.1449 16.5462 93.9966L16.5451 93.9962C16.1295 93.8508 15.9094 93.3933 16.0566 92.9766L16.0567 92.9763C17.5627 88.69 21.5116 85.7488 26.0121 85.4766L26.2 85.4653V85.277V73V72.8H26H15.208C14.6048 72.8 14.104 72.6174 13.7563 72.3012C13.4108 71.9869 13.2 71.5259 13.2 70.933V69.234V69.1493L13.1392 69.0904C11.1397 67.1519 9.11024 64.8966 8.61015 61.9664L8.58176 61.8H8.413H8.217C7.49407 61.8 7.00224 61.5288 6.68425 61.0964C6.35945 60.6547 6.2 60.0223 6.2 59.28V35.145C6.2 34.5512 6.41322 34.0688 6.76392 33.7342C7.11556 33.3988 7.61828 33.2 8.217 33.2H10.211C10.8142 33.2 11.4713 33.4021 11.9735 33.7534C12.4752 34.1044 12.8 34.5863 12.8 35.145V59.28C12.8 60.1282 12.6029 60.7447 12.1811 61.1529C11.7575 61.5626 11.0688 61.8 10 61.8H9.75524L9.80401 62.0399C10.2564 64.2647 11.8447 66.0676 13.4767 67.5883ZM10.666 60.2C10.9597 60.2 11.2 59.9622 11.2 59.667V35.333C11.2 35.0378 10.9597 34.8 10.666 34.8H8.334C8.04032 34.8 7.8 35.0378 7.8 35.333V59.667C7.8 59.9622 8.04032 60.2 8.334 60.2H10.666ZM39.666 71.2C39.9605 71.2 40.2 70.9605 40.2 70.666V69.334C40.2 69.0395 39.9605 68.8 39.666 68.8H15.334C15.0395 68.8 14.8 69.0395 14.8 69.334V70.666C14.8 70.9605 15.0395 71.2 15.334 71.2H39.666Z" fill="white" stroke="#212121" stroke-width="0.4"/>
<path d="M43.2361 15.9557C42.1804 18.8562 39.5575 20.4346 38.6476 20.1034C37.7377 19.7722 37.8558 17.1524 38.9115 14.2519C39.9672 11.3513 41.5607 9.26848 42.4706 9.59967C43.3806 9.93086 44.2918 13.0552 43.2361 15.9557Z" fill="#A5D6A7"/>
<path d="M90.5 23.5L79 41.5H61.5L57.5 12L90.5 23.5Z" fill="url(#paint0_linear)"/>
<path d="M34 25.5C34 25.7761 32.3284 26 31.5 26C30.6716 26 28.5 25.7761 28.5 25.5C28.5 25.2239 30.4716 24.5 31.3 24.5C32.1284 24.5 34 25.2239 34 25.5Z" fill="#A5D6A7"/>
<defs>
<linearGradient id="paint0_linear" x1="84" y1="33.5" x2="65" y2="26" gradientUnits="userSpaceOnUse">
<stop stop-color="#FEB72B" stop-opacity="0.45"/>
<stop offset="1" stop-color="#FEB72B" stop-opacity="0"/>
</linearGradient>
</defs>
</svg>
