<svg xmlns="http://www.w3.org/2000/svg" data-name="Layer 2" viewBox="0 0 32 40" x="0px" y="0px"><title>development</title><path d="M24.39,14.5H23.5V9a7.5,7.5,0,0,0-15,0v5.5H7.61A2.12,2.12,0,0,0,5.5,16.61V28.39A2.12,2.12,0,0,0,7.61,30.5H24.39a2.12,2.12,0,0,0,2.11-2.11V16.61A2.12,2.12,0,0,0,24.39,14.5ZM9.5,9a6.5,6.5,0,0,1,13,0v5.5H9.5Zm16,19.39a1.11,1.11,0,0,1-1.11,1.11H7.61A1.11,1.11,0,0,1,6.5,28.39V16.61A1.11,1.11,0,0,1,7.61,15.5H24.39a1.11,1.11,0,0,1,1.11,1.11Z"/><path d="M16,17.5a2.75,2.75,0,0,0-1.4,5.12V26.1a1.4,1.4,0,1,0,2.8,0V22.62A2.75,2.75,0,0,0,16,17.5Zm.7,4.35-.3.13V26.1a.4.4,0,0,1-.8,0V22l-.3-.13a1.73,1.73,0,0,1-1.05-1.6,1.75,1.75,0,0,1,3.5,0A1.73,1.73,0,0,1,16.7,21.85Z"/><text x="0" y="47" fill="#000000" font-size="5px" font-weight="bold" font-family="'Helvetica Neue', Helvetica, Arial-Unicode, Arial, Sans-serif">Created by Ilham Fitrotul Hayat</text><text x="0" y="52" fill="#000000" font-size="5px" font-weight="bold" font-family="'Helvetica Neue', Helvetica, Arial-Unicode, Arial, Sans-serif">from the Noun Project</text></svg>