<svg width="100" height="100" viewBox="0 0 100 100" fill="none" xmlns="http://www.w3.org/2000/svg">
<path d="M52.1838 61.536L52.1842 61.5393L55.6452 86.9093L55.6464 86.9181L55.6481 86.9269C56.1084 89.363 54.4591 91.7763 51.9529 92.2511L51.9508 92.2514C51.8052 92.2799 51.6649 92.285 51.523 92.285C51.4896 92.285 51.4551 92.283 51.4141 92.28C51.4068 92.2795 51.399 92.2789 51.3908 92.2783C51.3609 92.276 51.3255 92.2733 51.2913 92.2718L51.1266 92.254L51.1078 92.2519H51.089C48.9363 92.2519 46.9733 90.5705 46.5497 88.3554L43.471 64.9533L43.431 64.6489H43.124H24.788C20.8178 64.6489 17.8676 62.466 16.8488 58.7074L16.8487 58.7071C16.5143 57.4766 16.5275 56.2166 16.8897 54.9521C16.8899 54.9512 16.8902 54.9503 16.8904 54.9494L25.1908 27.6879L25.1909 27.6879L25.1925 27.6821C25.8572 25.3568 27.7568 23.6617 30.1519 23.2386L30.1519 23.2386C32.4036 22.8407 34.6073 23.6701 36.0575 25.3887L36.0688 25.402L36.0814 25.4142L44.1644 33.2512L44.2662 33.3499H44.408H57.98C60.2703 33.3499 62.2121 34.7301 62.743 36.7932C63.1093 38.2174 62.8071 39.6112 61.9044 40.7868L61.472 41.3499H62.182H79.021H79.2121L79.3155 41.1891L90.5255 23.7431L90.5255 23.7431C90.7195 23.441 91.1208 23.3527 91.4231 23.5479L91.4239 23.5484C91.7251 23.7419 91.8131 24.1442 91.6186 24.4466L91.6186 24.4467L79.9219 42.6499H43.009C41.5835 42.6499 40.0728 41.9794 38.7649 40.7259L35.7476 37.6566L35.3359 37.2378L35.1634 37.7991L29.9094 54.8971L29.7703 55.3499H30.244H45.263C48.2871 55.3499 51.166 57.6067 52.0764 60.778L52.1002 60.877L52.1838 61.536ZM51.3265 90.9876L51.3318 90.9878C51.3447 90.9882 51.3581 90.9886 51.3718 90.9891C51.4192 90.9907 51.4703 90.9925 51.5154 90.9928C51.5676 90.9932 51.6425 90.9924 51.7122 90.9788C53.5032 90.6391 54.6955 88.9295 54.3636 87.1411L50.8178 61.1217L50.8141 61.0946L50.8063 61.0684C50.0498 58.5451 47.7013 56.6499 45.263 56.6499H29.96C29.5149 56.6499 29.0762 56.416 28.8018 56.0434C28.5334 55.6788 28.4497 55.1761 28.5835 54.7408L34.1535 36.6389L34.1536 36.6386C34.276 36.2397 34.5906 35.9441 34.9978 35.844C35.4039 35.7452 35.8226 35.8641 36.1173 36.1642L36.1173 36.1642L39.6753 39.7852L39.6752 39.7854L39.6831 39.7929C40.2425 40.3279 41.4896 41.3499 43.009 41.3499H58.27C59.2713 41.3499 60.2193 40.9054 60.8618 40.0751C61.5234 39.2217 61.7526 38.1619 61.4829 37.1167C61.0918 35.5975 59.5944 34.6499 57.98 34.6499H43.7468L35.0801 26.2447C34.1416 25.1205 32.7739 24.3859 31.292 24.3859C30.9917 24.3859 30.6865 24.4094 30.3779 24.4631L30.3769 24.4633C28.4803 24.7995 26.9698 26.1575 26.4383 28.0159C26.438 28.0169 26.4377 28.0179 26.4374 28.0189L18.1402 55.27L18.1401 55.27L18.1385 55.2757C17.8437 56.3064 17.8288 57.3585 18.1022 58.3647C18.6909 60.5359 19.8667 61.796 21.1615 62.5039C22.4436 63.2049 23.8148 63.3499 24.788 63.3499H43.457C44.0744 63.3499 44.6298 63.8624 44.715 64.5077L47.83 88.1956L47.8313 88.2056L47.8332 88.2155C48.1276 89.76 49.5184 90.9809 51.088 90.9809C51.1651 90.9809 51.2439 90.9837 51.3265 90.9876ZM45.332 13.3809C45.332 18.2266 41.3887 22.1699 36.543 22.1699C31.6973 22.1699 27.754 18.2266 27.754 13.3809C27.754 8.53524 31.6973 4.59194 36.543 4.59194C41.3887 4.59194 45.332 8.53524 45.332 13.3809ZM44.032 13.3809C44.032 9.25064 40.6733 5.89194 36.543 5.89194C32.4127 5.89194 29.054 9.25064 29.054 13.3809C29.054 17.5112 32.4127 20.8699 36.543 20.8699C40.6733 20.8699 44.032 17.5112 44.032 13.3809Z" fill="white" stroke="#212121" stroke-width="0.7"/>
<path d="M66.35 50V49.65H66H39.35V45.35H96.65V49.65H94H93.65V50V92.65H66.35V50ZM92 91.35H92.35V91V50V49.65H92H68H67.65V50V91V91.35H68H92ZM95 48.35H95.35V48V47V46.65H95H41H40.65V47V48V48.35H41H66.479H94.117H95Z" fill="white" stroke="#212121" stroke-width="0.7"/>
<path d="M13.4767 67.5883L13.6136 67.7159L13.75 67.5877C14.1052 67.2538 14.5887 67.2 15.208 67.2H40C40.6121 67.2 41.0549 67.3549 41.3442 67.6315C41.6319 67.9064 41.7989 68.3315 41.798 68.9387V68.939V70.933C41.798 71.5407 41.6301 72.0024 41.3358 72.3111C41.043 72.6185 40.6005 72.8 39.998 72.8H27.998H27.798V73V85.334V85.5124L27.9752 85.5327C32.2233 86.0201 35.8901 88.8847 37.3283 92.9783L37.3285 92.9787C37.4753 93.3938 37.2559 93.8508 36.8387 93.9973L36.8376 93.9977C36.7513 94.0286 36.6622 94.043 36.574 94.043C36.2435 94.043 35.9357 93.8373 35.8197 93.5076C34.6124 90.0688 31.5723 87.6421 28.0266 87.1479L27.799 87.1162V87.346V93C27.799 93.4425 27.4415 93.8 26.999 93.8C26.5565 93.8 26.199 93.4425 26.199 93V87.277V87.0618L25.9844 87.0775C22.1739 87.3563 18.844 89.8679 17.5653 93.5076C17.4187 93.9244 16.9616 94.1449 16.5462 93.9966L16.5451 93.9962C16.1295 93.8508 15.9094 93.3933 16.0566 92.9766L16.0567 92.9763C17.5627 88.69 21.5116 85.7488 26.0121 85.4766L26.2 85.4653V85.277V73V72.8H26H15.208C14.6048 72.8 14.104 72.6174 13.7563 72.3012C13.4108 71.9869 13.2 71.5259 13.2 70.933V69.234V69.1493L13.1392 69.0904C11.1397 67.1519 9.11024 64.8966 8.61015 61.9664L8.58176 61.8H8.413H8.217C7.49407 61.8 7.00224 61.5288 6.68425 61.0964C6.35945 60.6547 6.2 60.0223 6.2 59.28V35.145C6.2 34.5512 6.41322 34.0688 6.76392 33.7342C7.11556 33.3988 7.61828 33.2 8.217 33.2H10.211C10.8142 33.2 11.4713 33.4021 11.9735 33.7534C12.4752 34.1044 12.8 34.5863 12.8 35.145V59.28C12.8 60.1282 12.6029 60.7447 12.1811 61.1529C11.7575 61.5626 11.0688 61.8 10 61.8H9.75524L9.80401 62.0399C10.2564 64.2647 11.8447 66.0676 13.4767 67.5883ZM10.666 60.2C10.9597 60.2 11.2 59.9622 11.2 59.667V35.333C11.2 35.0378 10.9597 34.8 10.666 34.8H8.334C8.04032 34.8 7.8 35.0378 7.8 35.333V59.667C7.8 59.9622 8.04032 60.2 8.334 60.2H10.666ZM39.666 71.2C39.9605 71.2 40.2 70.9605 40.2 70.666V69.334C40.2 69.0395 39.9605 68.8 39.666 68.8H15.334C15.0395 68.8 14.8 69.0395 14.8 69.334V70.666C14.8 70.9605 15.0395 71.2 15.334 71.2H39.666Z" fill="white" stroke="#212121" stroke-width="0.4"/>
<path d="M43.2361 15.9557C42.1804 18.8562 39.5575 20.4346 38.6476 20.1034C37.7377 19.7722 37.8558 17.1524 38.9115 14.2519C39.9672 11.3513 41.5607 9.26848 42.4706 9.59967C43.3806 9.93086 44.2918 13.0552 43.2361 15.9557Z" fill="#A5D6A7"/>
<path d="M90.5 23.5L79 41.5H61.5L57.5 12L90.5 23.5Z" fill="url(#paint0_linear)"/>
<path d="M34 25.5C34 25.7761 32.3284 26 31.5 26C30.6716 26 28.5 25.7761 28.5 25.5C28.5 25.2239 30.4716 24.5 31.3 24.5C32.1284 24.5 34 25.2239 34 25.5Z" fill="#A5D6A7"/>
<defs>
<linearGradient id="paint0_linear" x1="84" y1="33.5" x2="65" y2="26" gradientUnits="userSpaceOnUse">
<stop stop-color="#FEB72B" stop-opacity="0.38"/>
<stop offset="1" stop-color="#FEB72B" stop-opacity="0"/>
</linearGradient>
</defs>
</svg>
